<svg height="512" viewBox="0 0 46 58" width="512" xmlns="http://www.w3.org/2000/svg"><g id="Page-1" fill="none" fill-rule="evenodd"><g id="011---Maple-Location" fill="rgb(0,0,0)" fill-rule="nonzero" transform="translate(0 -1)"><path id="Shape" d="m35.136 20.258c-.766.165-1.54.337-2.31.509-.755975.2192363-1.5512953-.191606-1.81-.935-.057-.134-.112-.264-.166-.393-.48.5333333-.9626667 1.0643333-1.448 1.593l-.548.6c-.011.012-.132.147-.143.158-.4565306.4974705-1.1913332.6240472-1.788.308-.6017584-.3229009-.9133354-1.0082883-.761-1.674.044-.258.1-.542.151-.826l.975-5.113c-.253.15-.439.26-.524.309-.3645805.2364857-.8125663.3066653-1.232.193-.4237829-.1330685-.7698573-.4419854-.95-.848-.365-.735-.964-1.948-1.582-3.2-.618 1.255-1.216 2.467-1.58 3.2-.1699202.4119532-.5170858.7249216-.9443917.8513653s-.888877.0527879-1.2556083-.2003653l-.511-.3.976 5.115c.053.283.106.566.155.849.1439459.6556509-.165238 1.3271149-.757 1.644-.5980397.3231904-1.3391053.1996795-1.8-.3-.012-.011-.075-.081-.086-.093l-.605-.667c-.484-.5333333-.9666667-1.0643333-1.448-1.593-.047.113-.095.226-.143.338-.2439303.7660273-1.0484055 1.2035488-1.824.992-.7773333-.174-1.5503333-.3443333-2.319-.511l.843 2.681c.3061178.7772571-.0677856 1.6563753-.84 1.975l-.1.048.076.064 1.072.891c1.5533333 1.294 3.1096667 2.5893333 4.669 3.886.6051325.4130805.8232991 1.2028774.516 1.868l-.233.656 5.9-1.3c.1460463-.0350285.2980623-.0370781.445-.006h.006l5.918 1.3-.235-.662c-.3042242-.6650196-.0845412-1.4524986.52-1.864 1.556-1.292 3.1116667-2.5866667 4.667-3.884l1.072-.891.076-.064-.094-.045c-.7755018-.3175577-1.1523014-1.1989837-.846-1.979z"/><path id="Shape" d="m23 6c-9.9411255 0-18 8.0588745-18 18s8.0588745 18 18 18 18-8.0588745 18-18c-.0115721-9.9363282-8.0636718-17.98842786-18-18zm14.152 12.424c.3043685.3370553.4057704.8108997.266 1.243l-1.127 3.585.067.033c.3.146.6.292.9.429.3944833.1392442.6767772.4889724.7296546.9039543.0528774.414982-.1326947.8243261-.4796546 1.0580457-.36.29-.717.588-1.074.886l-1.072.891c-1.5 1.25-3.003 2.5006667-4.509 3.752l.206.579c.125.372.254.737.389 1.109.1558485.4373247.0628792.9247442-.243 1.274-.2990119.3425843-.7604771.4957677-1.205.4l-6-1.323v4.756c0 .5522847-.4477153 1-1 1s-1-.4477153-1-1v-4.756l-6 1.321c-.4466773.0969395-.9107723-.0562272-1.212-.4-.3045283-.3466491-.3985534-.8305341-.246-1.266.138-.38.267-.745.391-1.111l.206-.583-4.508-3.754-1.072-.891c-.357-.3-.714-.6-1.077-.888-.34518641-.2343106-.52932284-.6427906-.47630197-1.0566068.05302087-.4138163.3341929-.7626779.72730197-.9023932.307-.138.606-.284.906-.43l.066-.032-1.129-3.594c-.13633774-.4296107-.03417737-.8993073.26828495-1.2334778.30246233-.3341704.75968323-.4824968 1.20071505-.3895222l1.148.247c.6926667.15 1.3853333.3023333 2.078.457.19-.449.362-.863.528-1.282.1260147-.3963674.4572234-.6931152.865-.775.4042324-.0645887.8118422.0940961 1.066.415.609.68 1.218 1.351 1.828 2.022l-1.118-5.861c-.0954233-.4889073.1054347-.988235.5128295-1.2748802s.9452195-.3070588 1.3731705-.0521198l1.51.9c.522-1.054 1.318-2.667 2.033-4.122.2107079-.43264678.6497713-.7071797 1.131-.7071797s.9202921.27453292 1.131.7071797c.716 1.456 1.514 3.072 2.033 4.121l1.512-.9c.4280543-.2544509.965715-.2333956 1.3725598.0537509.4068448.2871464.606795.7866884.5104402 1.2752491l-1.12 5.861c.61-.6666667 1.217-1.338 1.821-2.014.2487166-.3318241.6629094-.4955731 1.0712927-.4235303.4083834.0720428.7415444.3676323.8617073.7645303.175.442.353.869.533 1.293.698-.1553333 1.3893333-.307 2.074-.455l1.158-.25c.4390464-.0917885.893787.0567448 1.194.39z"/><path id="Shape" d="m23 51.586 3.586-3.586h-7.172z"/><path id="Shape" d="m23.432 1c-6.1744818-.11599343-12.1362191 2.25591021-16.54344498 6.58188301-4.40722586 4.32597279-6.88964445 10.24254579-6.88855502 16.41811699 0 18.8 18.957 32.5 22.45 34.832.332598.2235339.767402.2235339 1.1 0 3.259-2.175 19.9-14.221 22.185-31 1.885-13.784-8.397-26.573-22.303-26.832zm6.275 46.7-6 6c-.3904999.3903819-1.0235001.3903819-1.414 0l-6-6c-.2809587-.2866149-.3633354-.7134389-.2092158-1.0840236s.5148709-.6131196.9162158-.6159764h12c.4043959.0000863.7689341.2437275.923678.6173454.1547439.373618.0692299.8036603-.216678 1.0896546zm-6.707-3.7c-11.045695 0-20-8.954305-20-20s8.954305-20 20-20 20 8.954305 20 20c-.0126747 11.0404407-8.9595593 19.9873253-20 20z"/></g></g></svg>