<svg id="Capa_1" enable-background="new 0 0 512 512" height="512" viewBox="0 0 512 512" width="512" xmlns="http://www.w3.org/2000/svg"><g><path d="m382.8 255.67c0 70.05-56.88 127.05-126.8 127.05s-126.8-57-126.8-127.05c0-107.18 110.73-237.01 115.44-242.48l11.36-13.19 11.36 13.19c4.71 5.47 115.44 135.3 115.44 242.48z" fill="#7dc7ff"/><path d="m256 382.72v-382.72l11.36 13.19c4.71 5.47 115.44 135.3 115.44 242.48 0 70.05-56.88 127.05-126.8 127.05z" fill="#5cb2ff"/><path d="m512 349.22c0 44.9-27.62 86.55-77.76 117.3-47.84 29.33-111.14 45.48-178.24 45.48s-130.4-16.15-178.24-45.48c-50.14-30.75-77.76-72.4-77.76-117.3 0-43.91 26.58-84.92 74.84-115.48l16.03 25.41c-39.25 24.85-60.87 56.84-60.87 90.07 0 34.03 22.52 66.58 63.42 91.65 43.19 26.49 100.93 41.07 162.58 41.07s119.39-14.58 162.58-41.07c40.9-25.07 63.42-57.62 63.42-91.65 0-33.23-21.62-65.22-60.86-90.07l16.02-25.41c48.26 30.56 74.84 71.57 74.84 115.48z" fill="#aee2ff"/><path d="m447 349.22c0 21.05-17.02 43.55-46.68 61.74-37.23 22.82-89.83 35.91-144.32 35.91s-107.09-13.09-144.32-35.91c-29.66-18.19-46.68-40.69-46.68-61.74 0-15.27 8.75-31.17 25.29-45.99l19.99 22.41c-9.57 8.57-15.28 17.38-15.28 23.58 0 8.1 10 22.4 32.34 36.1 32.64 20.01 79.54 31.49 128.66 31.49s96.02-11.48 128.66-31.49c22.34-13.7 32.34-28 32.34-36.1 0-6.2-5.71-15.01-15.28-23.58l19.99-22.41c16.55 14.82 25.29 30.72 25.29 45.99z" fill="#aee2ff"/><path d="m322.798 256h-30c0 20.331-16.508 36.871-36.798 36.871v30.059c36.832 0 66.798-30.024 66.798-66.93z" fill="#d3ebf4"/><g fill="#7dc7ff"><path d="m400.32 410.96c-37.23 22.82-89.83 35.91-144.32 35.91v-30.06c49.12 0 96.02-11.48 128.66-31.49 22.34-13.7 32.34-28 32.34-36.1 0-6.2-5.71-15.01-15.28-23.58l19.99-22.41c16.55 14.82 25.29 30.72 25.29 45.99 0 21.05-17.02 43.55-46.68 61.74z"/><path d="m512 349.22c0 44.9-27.62 86.55-77.76 117.3-47.84 29.33-111.14 45.48-178.24 45.48v-30.06c61.65 0 119.39-14.58 162.58-41.07 40.9-25.07 63.42-57.62 63.42-91.65 0-33.23-21.62-65.22-60.86-90.07l16.02-25.41c48.26 30.56 74.84 71.57 74.84 115.48z"/></g></g></svg>